G04 EasyPC Gerber Version 21.0.3 Build 4286 *
G04 #@! TF.Part,Single*
G04 #@! TF.FileFunction,Copper,L2,Bot *
G04 #@! TF.FilePolarity,Positive *
%FSLAX35Y35*%
%MOIN*%
G04 #@! TA.AperFunction,ComponentPad*
%ADD29R,0.04862X0.04862*%
G04 #@! TD.AperFunction*
%ADD16C,0.01500*%
G04 #@! TA.AperFunction,ViaPad*
%ADD21C,0.04800*%
G04 #@! TA.AperFunction,ComponentPad*
%ADD72C,0.04862*%
G04 #@! TA.AperFunction,WasherPad*
%ADD13C,0.06000*%
G04 #@! TA.AperFunction,ComponentPad*
%ADD75C,0.08268*%
X0Y0D02*
D02*
D13*
X275250Y455250D03*
X310250Y70250D03*
Y90250D03*
X325250Y455250D03*
X340250Y70250D03*
Y90250D03*
D02*
D16*
X180250Y70250D02*
Y120250D01*
X190250*
Y455250D02*
Y150014D01*
X200250Y75250D02*
Y60250D01*
X190250*
X200250Y75250D02*
X340250D01*
X200250D02*
Y150250D01*
X310250Y80250D02*
Y90250D01*
X325250Y260250D02*
Y455250D01*
X340250Y50250D02*
X310250D01*
Y70250*
X340250Y75250D02*
Y70250D01*
Y75250D02*
Y90250D01*
D02*
D21*
X180250Y70250D03*
X190250Y455250D03*
X200250Y150250D03*
X310250Y80250D03*
X325250Y260250D03*
X340250Y50250D03*
D02*
D29*
X105250Y395250D03*
D02*
D72*
Y255250D03*
Y265250D03*
Y275250D03*
Y285250D03*
Y295250D03*
Y305250D03*
Y315250D03*
Y325250D03*
Y335250D03*
Y345250D03*
Y355250D03*
Y365250D03*
Y375250D03*
Y385250D03*
X195250Y255250D03*
Y265250D03*
Y275250D03*
Y285250D03*
Y295250D03*
Y305250D03*
Y315250D03*
Y325250D03*
Y335250D03*
Y345250D03*
Y355250D03*
Y365250D03*
Y375250D03*
Y385250D03*
Y395250D03*
D02*
D75*
X190250Y60250D03*
Y90014D03*
Y120250D03*
Y150014D03*
X264659Y90014D03*
Y150014D03*
X277258Y60250D03*
Y120250D03*
X289856Y90014D03*
Y150014D03*
X0Y0D02*
M02*
