G04 EasyPC Gerber Version 21.0.3 Build 4286 *
G04 #@! TF.Part,Single*
G04 #@! TF.FileFunction,Legend,Top *
G04 #@! TF.FilePolarity,Positive *
%FSLAX35Y35*%
%MOIN*%
%ADD12C,0.00394*%
%ADD11C,0.00500*%
%ADD22C,0.00787*%
%ADD25C,0.01000*%
X0Y0D02*
D02*
D11*
X150250Y329937D02*
Y327125D01*
X150563Y326500*
X151187Y326187*
X152437*
X153063Y326500*
X153375Y327125*
Y329937*
X155875Y326187D02*
X157125D01*
X156500D02*
Y329937D01*
X155875Y329313*
X238872Y74593D02*
Y78343D01*
Y76468D02*
X239809D01*
X241997Y78343*
X239809Y76468D02*
X241997Y74593D01*
X244497D02*
X245747D01*
X245122D02*
Y78343D01*
X244497Y77718*
X238872Y134593D02*
Y138343D01*
Y136468D02*
X239809D01*
X241997Y138343*
X239809Y136468D02*
X241997Y134593D01*
X246372D02*
X243872D01*
X246059Y136781*
X246372Y137406*
X246059Y138031*
X245435Y138343*
X244497*
X243872Y138031*
X260250Y230250D02*
X340250D01*
G75*
G03X350250Y240250J10000*
G01*
Y395250*
G75*
G03X340250Y405250I-10000*
G01*
X260093*
G75*
G03X250250Y395407J-9843*
G01*
Y240250*
G75*
G03X260250Y230250I10000*
G01*
X266500Y419000D02*
X284000D01*
Y405220*
X266500*
Y419000*
X272750Y395250D02*
X277750D01*
X280250Y455250D02*
X285250D01*
X288687Y358063D02*
X289313Y357750D01*
X289625Y357125*
X289313Y356500*
X288687Y356187*
X286500*
Y359937*
X288687*
X289313Y359625*
X289625Y359000*
X289313Y358375*
X288687Y358063*
X286500*
X291500Y356187D02*
X293063Y359937D01*
X294625Y356187*
X292125Y357750D02*
X294000D01*
X298063Y356187D02*
Y359937D01*
X296500D02*
X299625D01*
X302125Y356187D02*
X303375D01*
X302750D02*
Y359937D01*
X302125Y359313*
X292750Y459000D02*
Y451500D01*
X293250Y177750D02*
Y162750D01*
X307250*
Y177750*
X293350*
X295250Y157437D02*
Y158687D01*
X295563Y159313*
X295875Y159625*
X296500Y159937*
X297125*
X297750Y159625*
X298063Y159313*
X298375Y158687*
Y157437*
X298063Y156813*
X297750Y156500*
X297125Y156187*
X296500*
X295875Y156500*
X295563Y156813*
X295250Y157437*
X297437Y157125D02*
X298375Y156187D01*
X302750D02*
X300250D01*
X302437Y158375*
X302750Y159000*
X302437Y159625*
X301813Y159937*
X300875*
X300250Y159625*
X296500Y459000D02*
X299000D01*
Y451500*
X296500*
Y459000*
X302750D02*
Y451500D01*
X303250Y57750D02*
Y42750D01*
X317250*
Y57750*
X303350*
X305250Y37437D02*
Y38687D01*
X305563Y39313*
X305875Y39625*
X306500Y39937*
X307125*
X307750Y39625*
X308063Y39313*
X308375Y38687*
Y37437*
X308063Y36813*
X307750Y36500*
X307125Y36187*
X306500*
X305875Y36500*
X305563Y36813*
X305250Y37437*
X307437Y37125D02*
X308375Y36187D01*
X310875D02*
X312125D01*
X311500D02*
Y39937D01*
X310875Y39313*
X305250Y96687D02*
Y100437D01*
X307437*
X308063Y100125*
X308375Y99500*
X308063Y98875*
X307437Y98563*
X305250*
X307437D02*
X308375Y96687D01*
X312750D02*
X310250D01*
X312437Y98875*
X312750Y99500*
X312437Y100125*
X311813Y100437*
X310875*
X310250Y100125*
X305250Y126687D02*
Y130437D01*
X307437*
X308063Y130125*
X308375Y129500*
X308063Y128875*
X307437Y128563*
X305250*
X307437D02*
X308375Y126687D01*
X310875D02*
X312125D01*
X311500D02*
Y130437D01*
X310875Y129813*
X306500Y459000D02*
X309000D01*
Y451500*
X306500*
Y459000*
X306750Y118250D02*
Y102250D01*
X313750*
Y118250*
X306750*
Y148250D02*
Y132250D01*
X313750*
Y148250*
X306750*
X315250Y70250D02*
X317750D01*
X315250Y90250D02*
X317750D01*
X315250Y455250D02*
X320250D01*
X317750Y65250D02*
Y75250D01*
X332750*
Y65250*
X317750*
Y85250D02*
Y95250D01*
X332750*
Y85250*
X317750*
Y457750D02*
Y452750D01*
X319000Y419000D02*
X331500D01*
Y405220*
X319000*
Y419000*
X320250Y78687D02*
Y82437D01*
X322125*
X322750Y82125*
X323063Y81813*
X323375Y81187*
Y79937*
X323063Y79313*
X322750Y79000*
X322125Y78687*
X320250*
X327750D02*
X325250D01*
X327437Y80875*
X327750Y81500*
X327437Y82125*
X326813Y82437*
X325875*
X325250Y82125*
X320250Y98687D02*
Y102437D01*
X322125*
X322750Y102125*
X323063Y101813*
X323375Y101187*
Y99937*
X323063Y99313*
X322750Y99000*
X322125Y98687*
X320250*
X325875D02*
X327125D01*
X326500D02*
Y102437D01*
X325875Y101813*
X322750Y395250D02*
X327750D01*
X325250Y397750D02*
Y392750D01*
X332750Y70250D02*
X335250D01*
X332750Y90250D02*
X335250D01*
D02*
D12*
X184738Y55250D02*
X182770D01*
Y95014*
X184738*
Y115250D02*
X182770D01*
Y155014*
X184738*
X196549Y55250D02*
X271352D01*
X196549Y95014D02*
X259541D01*
X196549Y115250D02*
X271352D01*
X196549Y155014D02*
X259541D01*
X271352Y95014D02*
X285132D01*
X271352Y155014D02*
X285132D01*
X283163Y55250D02*
X294974D01*
Y84974*
X283163Y115250D02*
X294974D01*
Y144974*
D02*
D22*
X100250Y230250D02*
X200250D01*
X102817Y420250D02*
X200250D01*
X189069Y52691D02*
G75*
G02X189856I394D01*
G01*
X189069Y112691D02*
G75*
G02X189856I394D01*
G01*
Y52691D02*
G75*
G02X189069I-394D01*
G01*
X189856D02*
Y112691*
G75*
G02X189069I-394D01*
G01*
X189856D02*
X190644Y52691*
Y112691*
*
D25*
X329250Y74950D02*
Y65550D01*
Y94950D02*
Y85550D01*
X0Y0D02*
M02*
