G04 EasyPC Gerber Version 21.0.3 Build 4286 *
G04 #@! TF.Part,Single*
G04 #@! TF.FileFunction,Soldermask,Top *
G04 #@! TF.FilePolarity,Negative *
%FSLAX35Y35*%
%MOIN*%
G04 #@! TA.AperFunction,SMDPad*
%ADD79R,0.05000X0.05800*%
%ADD78R,0.06500X0.07000*%
G04 #@! TA.AperFunction,ComponentPad*
%ADD76R,0.05862X0.05862*%
%ADD77C,0.05862*%
G04 #@! TA.AperFunction,WasherPad*
%ADD17C,0.07000*%
G04 #@! TA.AperFunction,ComponentPad*
%ADD80C,0.09268*%
X0Y0D02*
D02*
D17*
X275250Y455250D03*
X310250Y70250D03*
Y90250D03*
X325250Y455250D03*
X340250Y70250D03*
Y90250D03*
D02*
D76*
X105250Y395250D03*
D02*
D77*
Y255250D03*
Y265250D03*
Y275250D03*
Y285250D03*
Y295250D03*
Y305250D03*
Y315250D03*
Y325250D03*
Y335250D03*
Y345250D03*
Y355250D03*
Y365250D03*
Y375250D03*
Y385250D03*
X195250Y255250D03*
Y265250D03*
Y275250D03*
Y285250D03*
Y295250D03*
Y305250D03*
Y315250D03*
Y325250D03*
Y335250D03*
Y345250D03*
Y355250D03*
Y365250D03*
Y375250D03*
Y385250D03*
Y395250D03*
D02*
D78*
X310250Y105750D03*
Y114750D03*
Y135750D03*
Y144750D03*
D02*
D79*
X296250Y165950D03*
X300250Y174650D03*
X304250Y165950D03*
X306250Y45950D03*
X310250Y54650D03*
X314250Y45950D03*
D02*
D80*
X190250Y60250D03*
Y90014D03*
Y120250D03*
Y150014D03*
X264659Y90014D03*
Y150014D03*
X277258Y60250D03*
Y120250D03*
X289856Y90014D03*
Y150014D03*
X0Y0D02*
M02*
