G04 EasyPC Gerber Version 21.0.3 Build 4286 *
G04 #@! TF.Part,Single*
G04 #@! TF.FileFunction,Copper,L1,Top *
G04 #@! TF.FilePolarity,Positive *
%FSLAX35Y35*%
%MOIN*%
G04 #@! TA.AperFunction,ComponentPad*
%ADD29R,0.04862X0.04862*%
%ADD27R,0.06000X0.06000*%
G04 #@! TD.AperFunction*
%ADD11C,0.00500*%
%ADD16C,0.01500*%
G04 #@! TA.AperFunction,ViaPad*
%ADD21C,0.04800*%
G04 #@! TA.AperFunction,ComponentPad*
%ADD72C,0.04862*%
X0Y0D02*
D02*
D11*
X12750Y237750D02*
Y12750D01*
X232750*
Y237750*
X12750*
X77159Y112250D02*
G75*
G02X83931Y110250I3091J-2000D01*
G01*
G75*
G02X77159Y108250I-3681*
G01*
X75803*
G75*
G02X69100Y110250I-3053J2000*
G01*
G75*
G02X75803Y112250I3650*
G01*
X77159*
X80250Y63931D02*
G75*
G02X83931Y60250J-3681D01*
G01*
G75*
G02X80250Y56569I-3681*
G01*
G75*
G02X76569Y60250J3681*
G01*
G75*
G02X80250Y63931I3681*
G01*
X197197Y72250D02*
G75*
G02X203900Y70250I3053J-2000D01*
G01*
G75*
G02X197197Y68250I-3650*
G01*
X173341*
G75*
G02X171520Y66795I-3091J2000*
G01*
G75*
G02X172250Y65250I-1270J-1545*
G01*
Y63341*
G75*
G02X173341Y62250I-2000J-3091*
G01*
X192197*
G75*
G02X198900Y60250I3053J-2000*
G01*
G75*
G02X192197Y58250I-3650*
G01*
X173341*
G75*
G02X167054Y62077I-3091J2000*
G01*
G75*
G02X163171Y68250I-1804J3173*
G01*
X83341*
G75*
G02X76569Y70250I-3091J2000*
G01*
G75*
G02X83341Y72250I3681*
G01*
X167159*
G75*
G02X173341I3091J-2000*
G01*
X197197*
X80250Y83931D02*
G75*
G02X83931Y80250J-3681D01*
G01*
G75*
G02X80250Y76569I-3681*
G01*
G75*
G02X76569Y80250J3681*
G01*
G75*
G02X80250Y83931I3681*
G01*
Y93931D02*
G75*
G02X83931Y90250J-3681D01*
G01*
G75*
G02X80250Y86569I-3681*
G01*
G75*
G02X76569Y90250J3681*
G01*
G75*
G02X80250Y93931I3681*
G01*
X170250Y113931D02*
G75*
G02X173931Y110250J-3681D01*
G01*
G75*
G02X168423Y107054I-3681*
G01*
G75*
G02Y103446I-3173J-1804*
G01*
G75*
G02X173931Y100250I1827J-3196*
G01*
G75*
G02X166795Y98980I-3681*
G01*
G75*
G02X165250Y98250I-1545J1270*
G01*
X83341*
G75*
G02X76569Y100250I-3091J2000*
G01*
G75*
G02X83341Y102250I3681J0*
G01*
X163171*
G75*
G02X167054Y108423I2079J3000*
G01*
G75*
G02X170250Y113931I3196J1827*
G01*
Y83931D02*
G75*
G02X173931Y80250J-3681D01*
G01*
G75*
G02X170250Y76569I-3681*
G01*
G75*
G02X166569Y80250J3681*
G01*
G75*
G02X170250Y83931I3681*
G01*
Y93931D02*
G75*
G02Y86569J-3681D01*
G01*
G75*
G02X166569Y90250J3681*
G01*
G75*
G02X170250Y93931I3681*
G01*
X80250Y123931D02*
G75*
G02X83931Y120250J-3681D01*
G01*
G75*
G02X80250Y116569I-3681*
G01*
G75*
G02X76569Y120250J3681*
G01*
G75*
G02X80250Y123931I3681*
G01*
Y133931D02*
G75*
G02X83931Y130250J-3681D01*
G01*
G75*
G02X80250Y126569I-3681*
G01*
G75*
G02X76569Y130250J3681*
G01*
G75*
G02X80250Y133931I3681*
G01*
Y143931D02*
G75*
G02Y136569J-3681D01*
G01*
G75*
G02X76569Y140250J3681*
G01*
G75*
G02X80250Y143931I3681*
G01*
Y153931D02*
G75*
G02X83931Y150250J-3681D01*
G01*
G75*
G02X80250Y146569I-3681*
G01*
G75*
G02X76569Y150250J3681*
G01*
G75*
G02X80250Y153931I3681*
G01*
Y163931D02*
G75*
G02X83931Y160250J-3681D01*
G01*
G75*
G02X80250Y156569I-3681*
G01*
G75*
G02X76569Y160250J3681*
G01*
G75*
G02X80250Y163931I3681*
G01*
Y173931D02*
G75*
G02X83931Y170250J-3681D01*
G01*
G75*
G02X80250Y166569I-3681*
G01*
G75*
G02X76569Y170250J3681*
G01*
G75*
G02X80250Y173931I3681*
G01*
Y183931D02*
G75*
G02X83931Y180250J-3681D01*
G01*
G75*
G02X80250Y176569I-3681*
G01*
G75*
G02X76569Y180250J3681*
G01*
G75*
G02X80250Y183931I3681*
G01*
Y193931D02*
G75*
G02X83931Y190250J-3681D01*
G01*
G75*
G02X80250Y186569I-3681*
G01*
G75*
G02X76569Y190250J3681*
G01*
G75*
G02X80250Y193931I3681*
G01*
X76569Y203931D02*
X83931D01*
Y196569*
X76569*
Y203931*
X191000Y134500D02*
X199500D01*
Y126000*
X197250*
Y125250*
G75*
G02X197104Y124500I-2000J0*
G01*
X199500*
Y116000*
X191000*
Y123250*
X172383*
G75*
G02X170250Y116569I-2133J-3000*
G01*
G75*
G02X167054Y122077J3681*
G01*
G75*
G02X161600Y125250I-1804J3173*
G01*
G75*
G02X167054Y128423I3650*
G01*
G75*
G02X170250Y133931I3196J1827*
G01*
G75*
G02X172383Y127250J-3681*
G01*
X191000*
Y134500*
Y114500D02*
X199500D01*
Y106000*
X191000*
Y114500*
X170250Y143931D02*
G75*
G02X173931Y140250J-3681D01*
G01*
G75*
G02X170250Y136569I-3681*
G01*
G75*
G02X166569Y140250J3681*
G01*
G75*
G02X170250Y143931I3681*
G01*
Y153931D02*
G75*
G02X173931Y150250J-3681D01*
G01*
G75*
G02X170250Y146569I-3681*
G01*
G75*
G02X166569Y150250J3681*
G01*
G75*
G02X170250Y153931I3681*
G01*
Y163931D02*
G75*
G02Y156569J-3681D01*
G01*
G75*
G02X166569Y160250J3681*
G01*
G75*
G02X170250Y163931I3681*
G01*
Y173931D02*
G75*
G02X173931Y170250J-3681D01*
G01*
G75*
G02X170250Y166569I-3681*
G01*
G75*
G02X166569Y170250J3681*
G01*
G75*
G02X170250Y173931I3681*
G01*
Y183931D02*
G75*
G02X173931Y180250J-3681D01*
G01*
G75*
G02X170250Y176569I-3681*
G01*
G75*
G02X166569Y180250J3681*
G01*
G75*
G02X170250Y183931I3681*
G01*
Y193931D02*
G75*
G02X173931Y190250J-3681D01*
G01*
G75*
G02X170250Y186569I-3681*
G01*
G75*
G02X166569Y190250J3681*
G01*
G75*
G02X170250Y193931I3681*
G01*
Y203931D02*
G75*
G02X173931Y200250J-3681D01*
G01*
G75*
G02X170250Y196569I-3681*
G01*
G75*
G02X166569Y200250J3681*
G01*
G75*
G02X170250Y203931I3681*
G01*
X198900Y60250D02*
G36*
G75*
G02X192197Y58250I-3650D01*
G01*
X173341*
G75*
G02X166569Y60250I-3091J2000*
G01*
X83931*
G75*
G02X80250Y56569I-3681*
G01*
G75*
G02X76569Y60250J3681*
G01*
X13000*
Y13000*
X232500*
Y60250*
X198900*
G37*
X13000Y80250D02*
G36*
Y60250D01*
X76569*
G75*
G02X80250Y63931I3681*
G01*
G75*
G02X83931Y60250J-3681*
G01*
X166569*
G75*
G02X167054Y62077I3681*
G01*
G75*
G02X161600Y65250I-1804J3173*
G01*
G75*
G02X163171Y68250I3650*
G01*
X83341*
G75*
G02X76569Y70250I-3091J2000*
G01*
G75*
G02X83341Y72250I3681*
G01*
X167159*
G75*
G02X173341I3091J-2000*
G01*
X197197*
G75*
G02X203900Y70250I3053J-2000*
G01*
G75*
G02X197197Y68250I-3650*
G01*
X173341*
G75*
G02X171520Y66795I-3089J1999*
G01*
G75*
G02X172250Y65250I-1270J-1545*
G01*
Y63341*
G75*
G02X173341Y62250I-1994J-3085*
G01*
X192197*
G75*
G02X198900Y60250I3053J-2000*
G01*
X232500*
Y80250*
X173931*
G75*
G02X170250Y76569I-3681*
G01*
G75*
G02X166569Y80250J3681*
G01*
X83931*
G75*
G02X80250Y76569I-3681*
G01*
G75*
G02X76569Y80250J3681*
G01*
X13000*
G37*
Y90250D02*
G36*
Y80250D01*
X76569*
G75*
G02X80250Y83931I3681*
G01*
G75*
G02X83931Y80250J-3681*
G01*
X166569*
G75*
G02X170250Y83931I3681*
G01*
G75*
G02X173931Y80250J-3681*
G01*
X232500*
Y90250*
X173931*
G75*
G02X170250Y86569I-3681*
G01*
G75*
G02X166569Y90250J3681*
G01*
X83931*
G75*
G02X80250Y86569I-3681*
G01*
G75*
G02X76569Y90250J3681*
G01*
X13000*
G37*
X199500Y110250D02*
G36*
Y106000D01*
X191000*
Y110250*
X173931*
Y110250*
G75*
G02X168423Y107054I-3681*
G01*
G75*
G02X168900Y105250I-3173J-1804*
G01*
G75*
G02X168423Y103446I-3650*
G01*
G75*
G02X173931Y100250I1827J-3195*
G01*
Y100250*
G75*
G02X166795Y98980I-3681J0*
G01*
G75*
G02X165250Y98250I-1545J1270*
G01*
X83341*
G75*
G02X76569Y100250I-3091J2000*
G01*
G75*
G02X83341Y102250I3681*
G01*
X163171*
G75*
G02X161600Y105250I2079J3000*
G01*
G75*
G02X167054Y108423I3650*
G01*
G75*
G02X166569Y110250I3196J1827*
G01*
X83931*
G75*
G02X77159Y108250I-3681*
G01*
X75803*
G75*
G02X69100Y110250I-3053J2000*
G01*
X13000*
Y90250*
X76569*
G75*
G02X80250Y93931I3681*
G01*
G75*
G02X83931Y90250J-3681*
G01*
X166569*
G75*
G02X170250Y93931I3681*
G01*
G75*
G02X173931Y90250J-3681*
G01*
X232500*
Y110250*
X199500*
G37*
Y120250D02*
G36*
Y116000D01*
X191000*
Y120250*
X173931*
G75*
G02X170250Y116569I-3681*
G01*
G75*
G02X166569Y120250J3681*
G01*
X83931*
G75*
G02X80250Y116569I-3681*
G01*
G75*
G02X76569Y120250J3681*
G01*
X13000*
Y110250*
X69100*
G75*
G02X75803Y112250I3650*
G01*
X77159*
G75*
G02X83931Y110250I3091J-2000*
G01*
X166569*
G75*
G02X170250Y113931I3681*
G01*
G75*
G02X173931Y110250J-3681*
G01*
X191000*
Y114500*
X199500*
Y110250*
X232500*
Y120250*
X199500*
G37*
X166569Y130250D02*
G36*
X83931D01*
G75*
G02X80250Y126569I-3681*
G01*
G75*
G02X76569Y130250J3681*
G01*
X13000*
Y120250*
X76569*
G75*
G02X80250Y123931I3681*
G01*
G75*
G02X83931Y120250J-3681*
G01*
X166569*
G75*
G02X167054Y122077I3681*
G01*
G75*
G02X161600Y125250I-1804J3172*
G01*
Y125250*
Y125250*
G75*
G02X167054Y128423I3650*
G01*
G75*
G02X166569Y130250I3196J1827*
G01*
G37*
X191000Y120250D02*
G36*
Y123250D01*
X172383*
G75*
G02X173931Y120250I-2133J-3000*
G01*
X191000*
G37*
Y130250D02*
G36*
X173931D01*
G75*
G02X172383Y127250I-3681*
G01*
X191000*
Y130250*
G37*
X199500D02*
G36*
Y126000D01*
X197250*
Y125250*
G75*
G02X197104Y124500I-2008J2*
G01*
X199500*
Y120250*
X232500*
Y130250*
X199500*
G37*
G36*
X232500*
Y140250*
X173931*
G75*
G02X170250Y136569I-3681*
G01*
G75*
G02X166569Y140250J3681*
G01*
X83931*
G75*
G02X80250Y136569I-3681*
G01*
G75*
G02X76569Y140250J3681*
G01*
X13000*
Y130250*
X76569*
G75*
G02X80250Y133931I3681*
G01*
G75*
G02X83931Y130250J-3681*
G01*
X166569*
G75*
G02X170250Y133931I3681*
G01*
G75*
G02X173931Y130250J-3681*
G01*
X191000*
Y134500*
X199500*
Y130250*
G37*
X13000Y150250D02*
G36*
Y140250D01*
X76569*
G75*
G02X80250Y143931I3681*
G01*
G75*
G02X83931Y140250J-3681*
G01*
X166569*
G75*
G02X170250Y143931I3681*
G01*
G75*
G02X173931Y140250J-3681*
G01*
X232500*
Y150250*
X173931*
G75*
G02X170250Y146569I-3681*
G01*
G75*
G02X166569Y150250J3681*
G01*
X83931*
G75*
G02X80250Y146569I-3681*
G01*
G75*
G02X76569Y150250J3681*
G01*
X13000*
G37*
Y160250D02*
G36*
Y150250D01*
X76569*
G75*
G02X80250Y153931I3681*
G01*
G75*
G02X83931Y150250J-3681*
G01*
X166569*
G75*
G02X170250Y153931I3681*
G01*
G75*
G02X173931Y150250J-3681*
G01*
X232500*
Y160250*
X173931*
G75*
G02X170250Y156569I-3681*
G01*
G75*
G02X166569Y160250J3681*
G01*
X83931*
G75*
G02X80250Y156569I-3681*
G01*
G75*
G02X76569Y160250J3681*
G01*
X13000*
G37*
Y170250D02*
G36*
Y160250D01*
X76569*
G75*
G02X80250Y163931I3681*
G01*
G75*
G02X83931Y160250J-3681*
G01*
X166569*
G75*
G02X170250Y163931I3681*
G01*
G75*
G02X173931Y160250J-3681*
G01*
X232500*
Y170250*
X173931*
G75*
G02X170250Y166569I-3681*
G01*
G75*
G02X166569Y170250J3681*
G01*
X83931*
G75*
G02X80250Y166569I-3681*
G01*
G75*
G02X76569Y170250J3681*
G01*
X13000*
G37*
Y180250D02*
G36*
Y170250D01*
X76569*
G75*
G02X80250Y173931I3681*
G01*
G75*
G02X83931Y170250J-3681*
G01*
X166569*
G75*
G02X170250Y173931I3681*
G01*
G75*
G02X173931Y170250J-3681*
G01*
X232500*
Y180250*
X173931*
G75*
G02X170250Y176569I-3681*
G01*
G75*
G02X166569Y180250J3681*
G01*
X83931*
G75*
G02X80250Y176569I-3681*
G01*
G75*
G02X76569Y180250J3681*
G01*
X13000*
G37*
Y190250D02*
G36*
Y180250D01*
X76569*
G75*
G02X80250Y183931I3681*
G01*
G75*
G02X83931Y180250J-3681*
G01*
X166569*
G75*
G02X170250Y183931I3681*
G01*
G75*
G02X173931Y180250J-3681*
G01*
X232500*
Y190250*
X173931*
G75*
G02X170250Y186569I-3681*
G01*
G75*
G02X166569Y190250J3681*
G01*
X83931*
G75*
G02X80250Y186569I-3681*
G01*
G75*
G02X76569Y190250J3681*
G01*
X13000*
G37*
X83931Y200250D02*
G36*
Y196569D01*
X76569*
Y200250*
X13000*
Y190250*
X76569*
G75*
G02X80250Y193931I3681*
G01*
G75*
G02X83931Y190250J-3681*
G01*
X166569*
G75*
G02X170250Y193931I3681*
G01*
G75*
G02X173931Y190250J-3681*
G01*
X232500*
Y200250*
X173931*
G75*
G02X170250Y196569I-3681*
G01*
G75*
G02X166569Y200250J3681*
G01*
X83931*
G37*
X13000Y237500D02*
G36*
Y200250D01*
X76569*
Y203931*
X83931*
Y200250*
X166569*
G75*
G02X170250Y203931I3681*
G01*
G75*
G02X173931Y200250J-3681*
G01*
X232500*
Y237500*
X13000*
G37*
D02*
D16*
X72750Y110250D02*
X80250D01*
X165250Y65250D02*
X170250D01*
Y60250*
X165250Y105250D02*
Y100250D01*
X80250*
X165250Y125250D02*
X195250D01*
Y130250*
X170250Y70250D02*
X80250D01*
X195250Y60250D02*
X170250D01*
X200250Y70250D02*
X170250D01*
D02*
D21*
X72750Y110250D03*
X165250Y65250D03*
Y105250D03*
Y125250D03*
X195250Y60250D03*
X200250Y70250D03*
D02*
D27*
X195250Y110250D03*
Y120250D03*
Y130250D03*
D02*
D29*
X80250Y200250D03*
D02*
D72*
Y60250D03*
Y70250D03*
Y80250D03*
Y90250D03*
Y100250D03*
Y110250D03*
Y120250D03*
Y130250D03*
Y140250D03*
Y150250D03*
Y160250D03*
Y170250D03*
Y180250D03*
Y190250D03*
X170250Y60250D03*
Y70250D03*
Y80250D03*
Y90250D03*
Y100250D03*
Y110250D03*
Y120250D03*
Y130250D03*
Y140250D03*
Y150250D03*
Y160250D03*
Y170250D03*
Y180250D03*
Y190250D03*
Y200250D03*
X0Y0D02*
M02*
