G04 EasyPC Gerber Version 21.0.3 Build 4286 *
G04 #@! TF.Part,Single*
G04 #@! TF.FileFunction,Copper,L2,Bot *
G04 #@! TF.FilePolarity,Positive *
%FSLAX35Y35*%
%MOIN*%
G04 #@! TA.AperFunction,ComponentPad*
%ADD29R,0.04862X0.04862*%
%ADD27R,0.06000X0.06000*%
G04 #@! TD.AperFunction*
%ADD16C,0.01500*%
G04 #@! TA.AperFunction,ViaPad*
%ADD21C,0.04800*%
G04 #@! TA.AperFunction,ComponentPad*
%ADD72C,0.04862*%
X0Y0D02*
D02*
D16*
X72750Y110250D02*
Y70250D01*
X80250*
X165250Y105250D02*
Y65250D01*
Y125250D02*
Y110250D01*
X170250*
X195250Y60250D02*
Y110250D01*
X200250Y70250D02*
Y120250D01*
X195250*
D02*
D21*
X72750Y110250D03*
X165250Y65250D03*
Y105250D03*
Y125250D03*
X195250Y60250D03*
X200250Y70250D03*
D02*
D27*
X195250Y110250D03*
Y120250D03*
Y130250D03*
D02*
D29*
X80250Y200250D03*
D02*
D72*
Y60250D03*
Y70250D03*
Y80250D03*
Y90250D03*
Y100250D03*
Y110250D03*
Y120250D03*
Y130250D03*
Y140250D03*
Y150250D03*
Y160250D03*
Y170250D03*
Y180250D03*
Y190250D03*
X170250Y60250D03*
Y70250D03*
Y80250D03*
Y90250D03*
Y100250D03*
Y110250D03*
Y120250D03*
Y130250D03*
Y140250D03*
Y150250D03*
Y160250D03*
Y170250D03*
Y180250D03*
Y190250D03*
Y200250D03*
X0Y0D02*
M02*
